<?xml version="1.0" encoding="UTF-8" standalone="no"?>
<!-- Created with Inkscape (http://www.inkscape.org/) -->

<svg
   width="49.445068mm"
   height="8.2549734mm"
   viewBox="0 0 49.445069 8.2549734"
   version="1.1"
   id="svg5"
   xmlns="http://www.w3.org/2000/svg"
   xmlns:svg="http://www.w3.org/2000/svg">
  <defs
     id="defs2" />
  <g
     id="layer1">
    <g
       aria-label="BaconErie"
       id="text1683"
       style="font-weight:bold;font-size:10.5833px;line-height:1.25;font-family:Ubuntu;-inkscape-font-specification:'Ubuntu, Bold';letter-spacing:0px;word-spacing:0px;fill:#ffffff;stroke-width:0.265">
      <path
         d="m 2.4447422,8.2020574 q -0.603248,0 -1.2064961,-0.042333 Q 0.6455813,8.1279743 1.9073486e-8,7.9903914 V 0.87841406 Q 0.5079984,0.78316436 1.1112465,0.74083116 q 0.6032481,-0.0529165 1.1218297,-0.0529165 0.6984978,0 1.2805793,0.105833 0.5926648,0.0952497 1.0159968,0.33866554 0.4233319,0.2434159 0.6561645,0.6455813 0.2434159,0.3915821 0.2434159,0.9736636 0,0.8784139 -0.8466639,1.3864122 0.6984977,0.2645825 0.9524969,0.7196644 0.2539992,0.4550819 0.2539992,1.0265801 0,1.1535796 -0.846664,1.7356611 Q 4.1063203,8.2020574 2.4447422,8.2020574 Z M 1.6086616,4.9106512 v 1.8944107 q 0.1799161,0.021167 0.3915821,0.03175 0.2116659,0.010583 0.4656651,0.010583 0.740831,0 1.1959129,-0.211666 0.4550819,-0.211666 0.4550819,-0.7831642 0,-0.5079984 -0.3809988,-0.7196644 Q 3.354906,4.9106512 2.6458249,4.9106512 Z m 0,-1.2594126 h 0.8043307 q 0.7619976,0 1.0900799,-0.1904994 0.3280823,-0.2010827 0.3280823,-0.634998 0,-0.4444986 -0.3386656,-0.6244147 -0.3386656,-0.1799161 -0.9948302,-0.1799161 -0.211666,0 -0.4550819,0.010583 -0.2434158,0 -0.4339152,0.021167 z"
         id="path3187" />
      <path
         d="m 9.1333769,7.0061445 q 0.2328326,0 0.4444985,-0.010583 0.211666,-0.010583 0.3386656,-0.03175 V 5.7678985 Q 9.821291,5.7467315 9.6307919,5.7255655 9.4402925,5.7043985 9.2815431,5.7043985 q -0.2222493,0 -0.423332,0.03175 -0.1904994,0.021167 -0.3386656,0.09525 -0.1481662,0.074083 -0.2328326,0.2010827 -0.084666,0.1269996 -0.084666,0.317499 0,0.3704155 0.2434159,0.5185817 0.2539992,0.1375828 0.6879141,0.1375826 z M 9.0063773,2.3918259 q 0.6984977,0 1.1641627,0.1587495 0.465665,0.1587495 0.740831,0.4550819 0.285749,0.2963324 0.402166,0.7196644 0.116416,0.4233319 0.116416,0.9419136 V 7.9480582 Q 11.091287,8.0221412 10.488039,8.117391 9.8847911,8.223224 9.0275439,8.223224 8.4877956,8.223224 8.043297,8.127974 7.6093817,8.0327246 7.2918827,7.8210586 6.9743837,7.5988093 6.8050509,7.2495604 6.6357181,6.9003116 6.6357181,6.3923132 q 0,-0.4868318 0.1904994,-0.8254974 0.2010827,-0.3386656 0.529165,-0.5397483 0.3280823,-0.2010827 0.7514143,-0.2857491 0.423332,-0.09525 0.8784139,-0.09525 0.3069157,0 0.5397482,0.03175 0.2434159,0.021167 0.3915821,0.0635 V 4.5931522 q 0,-0.4021654 -0.2434159,-0.6455812 -0.2434159,-0.2434159 -0.8466639,-0.2434159 -0.4021654,0 -0.7937475,0.0635 -0.3915821,0.052916 -0.6773312,0.1587495 L 7.1542998,2.6564084 q 0.1375829,-0.042333 0.3386656,-0.084666 0.211666,-0.052916 0.4550819,-0.084666 0.2434159,-0.042333 0.5079984,-0.0635 0.2751658,-0.03175 0.5503316,-0.03175 z"
         id="path3189" />
      <path
         d="m 12.594111,5.3233999 q 0,-0.6032481 0.190499,-1.1324131 0.201083,-0.5397482 0.571498,-0.9313303 0.370416,-0.4021654 0.899581,-0.634998 0.529165,-0.2328326 1.206496,-0.2328326 0.444498,0 0.814914,0.084666 0.370415,0.074083 0.719664,0.2222493 l -0.328082,1.2594127 q -0.222249,-0.084666 -0.486832,-0.1481662 -0.264582,-0.0635 -0.592664,-0.0635 -0.698498,0 -1.047747,0.4339152 -0.338666,0.4339153 -0.338666,1.1429964 0,0.7514143 0.317499,1.164163 0.328083,0.4127487 1.132413,0.4127487 0.285749,0 0.613832,-0.052917 0.328082,-0.052917 0.603248,-0.1693328 l 0.222249,1.2911625 q -0.275166,0.1164163 -0.687914,0.2010827 -0.412749,0.084666 -0.910164,0.084666 -0.761998,0 -1.312329,-0.2222493 Q 13.631274,7.799892 13.271442,7.4083099 12.922193,7.0167278 12.75286,6.4875629 12.594111,5.9478146 12.594111,5.3233999 Z"
         id="path3191" />
      <path
         d="m 23.092709,5.3128166 q 0,0.6561646 -0.1905,1.2064962 -0.190499,0.5397482 -0.550331,0.9313303 -0.359833,0.3809988 -0.867831,0.5926648 -0.497415,0.211666 -1.12183,0.211666 -0.613831,0 -1.12183,-0.211666 Q 18.742972,7.8316419 18.38314,7.4506431 18.023308,7.059061 17.822225,6.5193128 17.621143,5.9689812 17.621143,5.3128166 q 0,-0.6561646 0.201082,-1.1959129 0.211666,-0.5397482 0.571498,-0.920747 0.370416,-0.3809988 0.867831,-0.5926648 0.507998,-0.211666 1.100663,-0.211666 0.603248,0 1.100663,0.211666 0.507999,0.211666 0.867831,0.5926648 0.359832,0.3809988 0.560915,0.920747 0.201083,0.5397483 0.201083,1.1959129 z m -1.608662,0 q 0,-0.7302477 -0.296332,-1.1429964 -0.28575,-0.4233319 -0.825498,-0.4233319 -0.539748,0 -0.83608,0.4233319 -0.296333,0.4127487 -0.296333,1.1429964 0,0.7302477 0.296333,1.164163 0.296332,0.423332 0.83608,0.423332 0.539748,0 0.825498,-0.423332 0.296332,-0.4339153 0.296332,-1.164163 z"
         id="path3193" />
      <path
         d="m 24.309771,2.7304915 q 0.402165,-0.1164163 1.037163,-0.211666 0.634998,-0.105833 1.333496,-0.105833 0.709081,0 1.174746,0.1904994 0.476249,0.1799161 0.751414,0.5185817 0.275166,0.3386656 0.391582,0.8043308 0.116417,0.4656651 0.116417,1.0371633 v 3.14324 H 27.537677 V 5.1540671 q 0,-0.7619976 -0.201083,-1.0794966 -0.201082,-0.3174989 -0.751414,-0.3174989 -0.169333,0 -0.359832,0.021167 -0.190499,0.010583 -0.338666,0.03175 v 4.2968196 h -1.576911 z"
         id="path3195" />
      <path
         d="M 30.649155,8.1068077 V 0.77258106 h 4.952984 V 2.1589933 h -3.30199 v 1.4393288 h 2.931574 v 1.3546623 h -2.931574 v 1.7674111 h 3.545406 v 1.3864122 z"
         id="path3197" />
      <path
         d="m 40.311695,3.9369877 q -0.211666,-0.052916 -0.497415,-0.105833 -0.285749,-0.0635 -0.613831,-0.0635 -0.148167,0 -0.359833,0.03175 -0.201082,0.021167 -0.306915,0.052916 v 4.254487 H 36.956789 V 2.8363245 q 0.423332,-0.1481662 0.99483,-0.2751658 0.582082,-0.1375829 1.291163,-0.1375829 0.126999,0 0.306916,0.021167 0.179916,0.010583 0.359832,0.042333 0.179916,0.021167 0.359832,0.0635 0.179916,0.03175 0.306916,0.084666 z"
         id="path3199" />
      <path
         d="M 42.999841,8.1068077 H 41.42293 V 2.5399921 h 1.576911 z m 0.148167,-7.17547715 q 0,0.43391525 -0.285749,0.68791445 -0.275166,0.2434159 -0.656165,0.2434159 -0.380999,0 -0.666748,-0.2434159 -0.275166,-0.2539992 -0.275166,-0.68791445 0,-0.43391528 0.275166,-0.67733117 Q 41.825095,1.8692017e-7 42.206094,1.8692017e-7 q 0.380999,0 0.656165,0.25399919307983 0.285749,0.24341589 0.285749,0.67733117 z"
         id="path3201" />
      <path
         d="m 44.216918,5.3657331 q 0,-0.740831 0.22225,-1.2911626 0.232832,-0.5609148 0.603248,-0.9313303 0.370415,-0.3704155 0.846664,-0.5609149 0.486831,-0.1904994 0.99483,-0.1904994 1.185329,0 1.873244,0.7302477 0.687914,0.7196644 0.687914,2.1272432 0,0.1375829 -0.01058,0.3069157 -0.01058,0.1587495 -0.02117,0.2857491 h -3.577155 q 0.05292,0.4868318 0.455082,0.7725809 0.402165,0.2857491 1.079497,0.2857491 0.433915,0 0.846663,-0.074083 0.423332,-0.084666 0.687915,-0.2010827 l 0.211666,1.2805792 q -0.127,0.0635 -0.338666,0.1269996 -0.211666,0.0635 -0.476248,0.105833 -0.253999,0.052917 -0.550332,0.084666 -0.296332,0.03175 -0.592664,0.03175 -0.751415,0 -1.31233,-0.2222493 Q 45.296415,7.8104753 44.925999,7.4294765 44.566167,7.0378944 44.386251,6.5087295 44.216918,5.9795645 44.216918,5.3657331 Z M 47.921073,4.762485 Q 47.91049,4.5614023 47.84699,4.3709029 47.794073,4.1804035 47.667074,4.0322373 47.550658,3.8840712 47.360158,3.7888215 q -0.179916,-0.09525 -0.455082,-0.09525 -0.264582,0 -0.455082,0.09525 -0.190499,0.084666 -0.317499,0.2328325 -0.126999,0.1481662 -0.201082,0.3492489 -0.0635,0.1904994 -0.09525,0.3915821 z"
         id="path3203" />
    </g>
  </g>
</svg>
