<?xml version="1.0" encoding="UTF-8" standalone="no"?>
<svg
   version="1.1"
   width="200"
   height="200"
   viewBox="0 0 200 200"
   xml:space="preserve"
   id="svg156"
   sodipodi:docname="logo-image.svg"
   inkscape:version="1.2 (1:1.2+202206011327+fc4e4096c5)"
   xmlns:inkscape="http://www.inkscape.org/namespaces/inkscape"
   xmlns:sodipodi="http://sodipodi.sourceforge.net/DTD/sodipodi-0.dtd"
   xmlns="http://www.w3.org/2000/svg"
   xmlns:svg="http://www.w3.org/2000/svg"><sodipodi:namedview
   id="namedview158"
   pagecolor="#505050"
   bordercolor="#eeeeee"
   borderopacity="1"
   inkscape:showpageshadow="0"
   inkscape:pageopacity="0"
   inkscape:pagecheckerboard="0"
   inkscape:deskcolor="#505050"
   showgrid="false"
   inkscape:zoom="1.3"
   inkscape:cx="61.923077"
   inkscape:cy="80.384615"
   inkscape:window-width="1366"
   inkscape:window-height="656"
   inkscape:window-x="0"
   inkscape:window-y="27"
   inkscape:window-maximized="1"
   inkscape:current-layer="svg156" />
<desc
   id="desc128">Created with Fabric.js 4.6.0</desc>
<defs
   id="defs130">
</defs>








<path
   style="fill:#000000"
   d="M 0.88352662,100.01664 V 0.01664083 H 100.88353 h 100 v 99.99999917 100 h -100 H 0.88352662 Z M 116.28553,163.97223 c 4.4539,-1.10515 13.41624,-3.86353 19.91632,-6.12974 10.0632,-3.50847 12.4825,-4.78456 16.29073,-8.59279 5.36269,-5.36269 7.23332,-8.883 11.01716,-20.73306 5.22261,-16.35593 3.61335,-32.247248 -4.7771,-47.173254 -2.88104,-5.125159 -2.88838,-5.179505 -0.79019,-5.845447 1.16484,-0.369705 2.70149,-2.060164 3.41478,-3.756574 1.7755,-4.222682 0.41421,-7.651561 -5.03008,-12.669929 -4.15264,-3.827766 -4.75012,-4.056779 -10.67128,-4.09023 -3.44979,-0.01949 -7.35394,-0.634805 -8.6759,-1.367368 -2.32423,-1.287968 -2.18432,-1.40489 4.23855,-3.542287 9.86913,-3.284235 12.87384,-7.977122 8.59243,-13.420051 -1.48432,-1.887011 -3.00095,-2.634859 -5.34345,-2.634859 -3.96468,0 -12.52188,2.853493 -19.16946,6.392278 -2.69423,1.434247 -5.58987,2.607722 -6.43477,2.607722 -1.88597,0 -14.87848,6.158029 -18.6947,8.860684 -1.795592,1.27164 -5.982505,2.391927 -11.785043,3.153308 -15.708253,2.061161 -19.71334,2.922957 -22.895552,4.926559 -1.707446,1.075051 -7.154448,4.002373 -12.104448,6.505158 -8.54204,4.318968 -9.244132,4.926426 -13.797771,11.937979 -3.843943,5.918784 -4.664453,7.918641 -4.12718,10.059308 0.890801,3.549235 4.635978,5.899799 8.497255,5.333084 2.724967,-0.39994 3.010262,-0.21318 2.49951,1.636224 -3.996032,14.469405 -2.794802,27.201425 3.806467,40.345335 5.94188,11.83099 11.294599,18.36875 18.493717,22.58804 5.787686,3.39207 15.120892,7.12414 20.128002,8.0486 4.710193,0.86964 19.303033,-0.42908 27.402003,-2.43869 z M 84.773156,149.54687 c -4.670366,-1.719 -11.805875,-6.23553 -14.09513,-8.92174 -0.9883,-1.15967 -3.821366,-6.09173 -6.295704,-10.96014 -4.249245,-8.36065 -4.498795,-9.30773 -4.498795,-17.07378 0,-8.62228 3.196943,-21.893123 6.481734,-26.906348 2.198859,-3.355883 7.424552,-5.292989 21.888423,-8.113795 17.260876,-3.366288 27.458306,-4.165021 28.208716,-2.209499 1.02617,2.674155 6.19937,3.821108 9.51088,2.108661 1.60064,-0.827722 2.91714,-1.830892 2.92556,-2.229268 0.008,-0.398376 0.42361,-1.369553 0.92265,-2.15817 1.41647,-2.238442 9.31862,4.833352 13.674,12.237137 8.15988,13.871122 9.54918,25.873052 4.72593,40.826542 -3.56142,11.04146 -6.2952,13.75756 -17.83789,17.72252 -20.24345,6.95371 -36.608933,8.99099 -45.610374,5.67788 z m 40.849894,-25.39082 c 4.60573,-2.46492 4.00451,-10.53693 -0.96211,-12.91736 -2.29351,-1.09926 -4.0771,-0.9356 -12.47674,1.14483 -5.39037,1.33509 -11.40933,2.70432 -13.375469,3.04272 -6.595894,1.13527 -9.69172,6.42112 -6.859832,11.71255 0.946613,1.76876 4.000705,3.63742 6.234288,3.81446 8.490153,-2.64628 17.825863,-2.25033 27.439863,-6.7972 z M 93.133527,104.81896 c 0.9625,-1.11314 1.75,-3.27418 1.75,-4.80232 0,-7.006278 -8.069488,-9.945672 -12.658264,-4.610902 -2.752989,3.20054 -2.936743,5.316402 -0.734737,8.460202 3.108071,4.43739 8.26516,4.85952 11.643001,0.95302 z m 33.435553,-6.976633 c 4.6613,-4.379062 1.4308,-12.825686 -4.90532,-12.825686 -3.61606,0 -7.78023,4.014186 -7.78023,7.5 0,3.410142 4.16625,7.499999 7.64009,7.499999 1.50206,0 3.77251,-0.97844 5.04546,-2.174313 z"
   id="path543"
   sodipodi:nodetypes="cccccccccssssssssssssssssssssssssssssssssssscssssscssssccssssssssss" /><path
   style="fill:#ffffff;stroke-width:0.385221"
   d="m 86.923077,165.81082 c -6.400339,-1.76567 -15.161293,-5.60652 -19.756228,-8.66122 -9.860401,-6.55518 -19.841234,-23.58921 -22.188421,-37.86839 -0.945126,-5.7497 -0.630142,-14.04673 0.765701,-20.169468 0.569523,-2.498154 0.966618,-4.748154 0.882435,-5 -0.09931,-0.297084 -1.154722,-0.463746 -3.005197,-0.47455 -6.433229,-0.03756 -9.581176,-4.249854 -7.147945,-9.564727 1.598067,-3.490642 6.621575,-10.786761 8.578688,-12.45965 0.995252,-0.850715 5.025291,-3.234669 8.955643,-5.297675 3.930351,-2.063006 8.454086,-4.496857 10.052745,-5.408556 4.816316,-2.746701 6.615618,-3.208122 19.977964,-5.123242 11.273665,-1.615767 13.564942,-2.234257 17.932798,-4.840649 5.52986,-3.299785 15.57971,-7.86577 17.31277,-7.86577 0.33073,0 3.13674,-1.186583 6.23557,-2.636852 6.65988,-3.116855 9.93425,-4.382246 14.06115,-5.433979 5.52587,-1.408256 8.25979,-0.842978 10.3385,2.137639 2.07606,2.976808 1.96153,5.876323 -0.32645,8.264452 -1.33857,1.397173 -5.2373,3.430992 -9.40049,4.903882 -4.59711,1.626405 -4.61539,1.635177 -4.61539,2.215552 0,1.29977 2.83477,2.038401 9.50787,2.477383 3.22631,0.212239 6.0434,0.599627 6.86899,0.944578 1.60879,0.672199 7.12122,5.862771 8.47067,7.976098 0.5007,0.784121 1.06759,2.125467 1.25976,2.980769 0.70255,3.126807 -1.11221,7.268143 -3.64952,8.328293 -1.63787,0.68435 -1.92587,1.335493 -1.20807,2.731324 7.83887,15.243303 9.31747,20.372011 9.2908,32.226248 -0.0183,8.13224 -0.61928,11.56835 -3.63299,20.77143 -3.1751,9.6959 -5.82168,14.25508 -11.06458,19.06054 -3.23666,2.96661 -7.22058,4.92022 -16.38354,8.03405 -18.03328,6.12823 -26.5377,7.92 -39.459387,8.31362 -5.083811,0.15487 -6.357931,0.0722 -8.653846,-0.56113 z m 20.961543,-15.79075 c 10.19268,-1.88398 25.50906,-6.59476 30.47963,-9.37446 4.62733,-2.58775 7.43467,-6.62524 9.84115,-14.15345 3.59964,-11.26079 3.72629,-21.13549 0.39312,-30.651291 -1.51701,-4.330896 -4.84905,-10.752638 -7.22492,-13.924369 -3.93474,-5.252792 -8.45173,-9.224192 -10.4914,-9.224192 -0.95174,0 -1.22933,0.252223 -1.86893,1.698142 -0.60494,1.367565 -1.13954,1.891677 -2.7462,2.692308 -3.5172,1.752696 -6.86111,1.2466 -9.61339,-1.45497 -1.40996,-1.38398 -1.4536,-1.397019 -4.67625,-1.397019 -8.32553,0 -32.204576,4.360419 -39.595448,7.230304 -3.881364,1.507139 -5.32795,2.714189 -6.910265,5.766004 -4.36049,8.410104 -7.006885,25.785123 -5.081865,33.365193 1.117781,4.40144 7.985655,17.51831 10.735536,20.50367 3.2164,3.49183 11.827139,8.36305 16.759227,9.48094 3.605512,0.81721 14.155355,0.5235 20.000005,-0.55681 z"
   id="path614" /><path
   style="fill:#ffffff;stroke-width:0.385221"
   d="m 85,106.72618 c -2.708052,-1.45743 -4.807692,-4.44341 -4.807692,-6.837225 0,-1.595692 1.96269,-4.687166 3.624655,-5.709272 4.180732,-2.571144 8.739302,-1.117836 10.436945,3.327379 1.67153,4.376838 -1.465948,9.356308 -6.108576,9.694868 -1.338548,0.0976 -2.369791,-0.0584 -3.145332,-0.47575 z"
   id="path616" /><path
   style="fill:#ffffff;stroke-width:0.385221"
   d="m 119.61538,99.431277 c -0.90962,-0.321562 -2.27884,-1.342387 -3.34981,-2.497462 -2.8679,-3.093122 -2.93559,-5.583697 -0.23512,-8.651588 1.95162,-2.217152 3.41988,-2.986369 5.70032,-2.986369 2.29655,0 3.95949,0.874769 5.37339,2.82661 2.66433,3.678004 1.60421,8.743579 -2.23667,10.687479 -2.08827,1.056887 -3.53566,1.228113 -5.25211,0.62133 z"
   id="path618" /><path
   style="fill:#ffffff;stroke-width:0.272392"
   d="m 96.547272,130.49499 c -0.448741,-0.14533 -1.48867,-0.71416 -2.310953,-1.26407 -2.625907,-1.75608 -3.781266,-4.94012 -2.893426,-7.97394 0.867045,-2.96276 3.201007,-4.73164 7.516074,-5.69634 1.421013,-0.31769 6.499943,-1.49169 11.286513,-2.60888 4.78657,-1.1172 9.49835,-2.09737 10.47062,-2.17815 3.37887,-0.28076 5.62429,0.91396 7.03913,3.74531 1.57327,3.14839 1.03721,7.09459 -1.20699,8.88528 -2.2887,1.8262 -8.36898,3.61436 -17.79856,5.23443 -3.51514,0.60392 -7.27981,1.34061 -8.36594,1.63708 -2.161627,0.59005 -2.525663,0.61141 -3.736468,0.21928 z"
   id="path718" /></svg>
