<?xml version="1.0" encoding="UTF-8" standalone="no"?>
<!-- Created with Inkscape (http://www.inkscape.org/) -->

<svg
   width="21mm"
   height="21mm"
   viewBox="0 0 21 21"
   version="1.1"
   id="svg5"
   inkscape:version="1.2 (1:1.2+202206011327+fc4e4096c5)"
   sodipodi:docname="more.svg"
   xmlns:inkscape="http://www.inkscape.org/namespaces/inkscape"
   xmlns:sodipodi="http://sodipodi.sourceforge.net/DTD/sodipodi-0.dtd"
   xmlns="http://www.w3.org/2000/svg"
   xmlns:svg="http://www.w3.org/2000/svg">
  <sodipodi:namedview
     id="namedview7"
     pagecolor="#505050"
     bordercolor="#eeeeee"
     borderopacity="1"
     inkscape:showpageshadow="0"
     inkscape:pageopacity="0"
     inkscape:pagecheckerboard="0"
     inkscape:deskcolor="#505050"
     inkscape:document-units="mm"
     showgrid="false"
     inkscape:zoom="4"
     inkscape:cx="20.625"
     inkscape:cy="53.625"
     inkscape:window-width="1366"
     inkscape:window-height="656"
     inkscape:window-x="0"
     inkscape:window-y="27"
     inkscape:window-maximized="1"
     inkscape:current-layer="layer1"
     showguides="false" />
  <defs
     id="defs2">
    <inkscape:path-effect
       effect="fillet_chamfer"
       id="path-effect1158"
       is_visible="true"
       lpeversion="1"
       nodesatellites_param="F,0,0,1,0,0,0,1 @ F,0,0,1,0,0,0,1 @ F,0,0,1,0,0,0,1 @ F,0,0,1,0,0,0,1 @ F,0,0,1,0,0,0,1 @ F,0,0,1,0,0,0,1 @ F,0,0,1,0,0,0,1 @ F,0,0,1,0,0,0,1"
       unit="px"
       method="auto"
       mode="F"
       radius="0"
       chamfer_steps="1"
       flexible="false"
       use_knot_distance="true"
       apply_no_radius="true"
       apply_with_radius="true"
       only_selected="false"
       hide_knots="false" />
    <inkscape:path-effect
       effect="fillet_chamfer"
       id="path-effect1120"
       is_visible="true"
       lpeversion="1"
       nodesatellites_param="F,0,0,1,0,0,0,1 @ F,0,0,1,0,0,0,1 @ F,0,0,1,0,0,0,1 @ F,0,0,1,0,0,0,1 @ F,0,0,1,0,0,0,1 @ F,0,0,1,0,0,0,1 @ F,0,0,1,0,0,0,1 @ F,0,0,1,0,0,0,1"
       unit="px"
       method="auto"
       mode="F"
       radius="0"
       chamfer_steps="1"
       flexible="false"
       use_knot_distance="true"
       apply_no_radius="true"
       apply_with_radius="true"
       only_selected="false"
       hide_knots="false" />
    <inkscape:path-effect
       effect="fillet_chamfer"
       id="path-effect1114"
       is_visible="true"
       lpeversion="1"
       nodesatellites_param="F,0,0,1,0,0,0,1 @ F,0,0,1,0,0,0,1 @ F,0,0,1,0,0,0,1 @ F,0,0,1,0,0,0,1 @ F,0,0,1,0,0,0,1 @ F,0,0,1,0,0,0,1 @ F,0,0,1,0,0,0,1 @ F,0,0,1,0,0,0,1"
       unit="px"
       method="auto"
       mode="F"
       radius="0"
       chamfer_steps="1"
       flexible="false"
       use_knot_distance="true"
       apply_no_radius="true"
       apply_with_radius="true"
       only_selected="false"
       hide_knots="false" />
    <inkscape:path-effect
       effect="fillet_chamfer"
       id="path-effect1106"
       is_visible="true"
       lpeversion="1"
       nodesatellites_param="F,0,0,1,0,0,0,1 @ F,0,0,1,0,0,0,1 @ F,0,0,1,0,0,0,1 @ F,0,0,1,0,0,0,1 @ F,0,0,1,0,0,0,1 @ F,0,0,1,0,0,0,1 @ F,0,0,1,0,0,0,1 @ F,0,0,1,0,0,0,1"
       unit="px"
       method="auto"
       mode="F"
       radius="0"
       chamfer_steps="1"
       flexible="false"
       use_knot_distance="true"
       apply_no_radius="true"
       apply_with_radius="true"
       only_selected="false"
       hide_knots="false" />
    <inkscape:path-effect
       effect="fillet_chamfer"
       id="path-effect1120-3"
       is_visible="true"
       lpeversion="1"
       nodesatellites_param="F,0,0,1,0,0,0,1 @ F,0,0,1,0,0,0,1 @ F,0,0,1,0,0,0,1 @ F,0,0,1,0,0,0,1 @ F,0,0,1,0,0,0,1 @ F,0,0,1,0,0,0,1 @ F,0,0,1,0,0,0,1 @ F,0,0,1,0,0,0,1"
       unit="px"
       method="auto"
       mode="F"
       radius="0"
       chamfer_steps="1"
       flexible="false"
       use_knot_distance="true"
       apply_no_radius="true"
       apply_with_radius="true"
       only_selected="false"
       hide_knots="false" />
    <inkscape:path-effect
       effect="fillet_chamfer"
       id="path-effect1120-3-7"
       is_visible="true"
       lpeversion="1"
       nodesatellites_param="F,0,0,1,0,0,0,1 @ F,0,0,1,0,0,0,1 @ F,0,0,1,0,0,0,1 @ F,0,0,1,0,0,0,1 @ F,0,0,1,0,0,0,1 @ F,0,0,1,0,0,0,1 @ F,0,0,1,0,0,0,1 @ F,0,0,1,0,0,0,1"
       unit="px"
       method="auto"
       mode="F"
       radius="0"
       chamfer_steps="1"
       flexible="false"
       use_knot_distance="true"
       apply_no_radius="true"
       apply_with_radius="true"
       only_selected="false"
       hide_knots="false" />
  </defs>
  <g
     inkscape:label="Layer 1"
     inkscape:groupmode="layer"
     id="layer1">
    <path
       style="fill:#3a3a3a;stroke-width:0.32709"
       id="rect1104"
       width="15"
       height="3"
       x="3"
       y="3"
       d="M 3.8764914,3 H 17.123509 C 17.609085,3 18,3.3909152 18,3.8764914 V 5.1235086 C 18,5.6090848 17.609085,6 17.123509,6 H 3.8764914 C 3.3909152,6 3,5.6090848 3,5.1235086 V 3.8764914 C 3,3.3909152 3.3909152,3 3.8764914,3 Z"
       inkscape:path-effect="#path-effect1106"
       sodipodi:type="rect"
       ry="0.87649143" />
    <path
       style="fill:#3a3a3a;stroke-width:0.32709"
       id="path1110"
       width="15"
       height="3"
       x="3"
       y="3"
       d="M 3.8764914,3 H 17.123509 C 17.609085,3 18,3.3909152 18,3.8764914 V 5.1235086 C 18,5.6090848 17.609085,6 17.123509,6 H 3.8764914 C 3.3909152,6 3,5.6090848 3,5.1235086 V 3.8764914 C 3,3.3909152 3.3909152,3 3.8764914,3 Z"
       inkscape:path-effect="#path-effect1114"
       sodipodi:type="rect"
       ry="0.87649143" />
    <path
       style="fill:#3a3a3a;stroke-width:0.32709"
       id="path1116"
       width="15"
       height="3"
       x="3"
       y="3"
       d="M 3.8764914,3 H 17.123509 C 17.609085,3 18,3.3909152 18,3.8764914 V 5.1235086 C 18,5.6090848 17.609085,6 17.123509,6 H 3.8764914 C 3.3909152,6 3,5.6090848 3,5.1235086 V 3.8764914 C 3,3.3909152 3.3909152,3 3.8764914,3 Z"
       inkscape:path-effect="#path-effect1120"
       sodipodi:type="rect"
       ry="0.87649143" />
    <path
       style="fill:#ffffff;stroke-width:0.32709;fill-opacity:1"
       id="path1116-6"
       width="15"
       height="3"
       x="3"
       y="9"
       d="M 3.8764914,9 H 17.123509 C 17.609085,9 18,9.3909152 18,9.8764914 V 11.123509 C 18,11.609085 17.609085,12 17.123509,12 H 3.8764914 C 3.3909152,12 3,11.609085 3,11.123509 V 9.8764914 C 3,9.3909152 3.3909152,9 3.8764914,9 Z"
       inkscape:path-effect="#path-effect1120-3"
       sodipodi:type="rect"
       ry="0.87649143" />
    <path
       style="fill:#ffffff;stroke-width:0.32709;fill-opacity:1"
       id="path1116-6-5"
       width="15"
       height="3"
       x="3"
       y="15"
       d="M 3.8764914,15 H 17.123509 C 17.609085,15 18,15.390915 18,15.876491 v 1.247018 C 18,17.609085 17.609085,18 17.123509,18 H 3.8764914 C 3.3909152,18 3,17.609085 3,17.123509 V 15.876491 C 3,15.390915 3.3909152,15 3.8764914,15 Z"
       inkscape:path-effect="#path-effect1120-3-7"
       sodipodi:type="rect"
       ry="0.87649143" />
    <path
       style="fill:#ffffff;stroke-width:0.32709;fill-opacity:1"
       id="path1154"
       width="15"
       height="3"
       x="3"
       y="3"
       d="M 3.8764914,3 H 17.123509 C 17.609085,3 18,3.3909152 18,3.8764914 V 5.1235086 C 18,5.6090848 17.609085,6 17.123509,6 H 3.8764914 C 3.3909152,6 3,5.6090848 3,5.1235086 V 3.8764914 C 3,3.3909152 3.3909152,3 3.8764914,3 Z"
       inkscape:path-effect="#path-effect1158"
       sodipodi:type="rect"
       ry="0.87649143" />
  </g>
</svg>
