<?xml version="1.0" encoding="UTF-8" standalone="no" ?>
<!DOCTYPE svg PUBLIC "-//W3C//DTD SVG 1.1//EN" "http://www.w3.org/Graphics/SVG/1.1/DTD/svg11.dtd">
<svg xmlns="http://www.w3.org/2000/svg" xmlns:xlink="http://www.w3.org/1999/xlink" version="1.1" width="200" height="200" viewBox="0 0 200 200" xml:space="preserve">
<desc>Created with Fabric.js 4.6.0</desc>
<defs>
</defs>
<g transform="matrix(1 0 0 1 100.17 100.17)" id="F20LXyOdEsDkXzLyEHOMz"  >
<path style="stroke: rgb(255,255,255); stroke-width: 0; stroke-dasharray: none; stroke-linecap: butt; stroke-dashoffset: 0; stroke-linejoin: miter; stroke-miterlimit: 4; fill: rgb(20,24,32); fill-rule: nonzero; opacity: 1;" vector-effect="non-scaling-stroke"  transform=" translate(0, 0)" d="M -100 -100 L 100 -100 L 100 100 L -100 100 z" stroke-linecap="round" />
</g>
<g transform="matrix(1 0 0 1 104.57 110.37)" id="bm9d7t8d52V1Tvde1iJb9"  >
<path style="stroke: rgb(255,255,255); stroke-width: 15; stroke-dasharray: none; stroke-linecap: round; stroke-dashoffset: 0; stroke-linejoin: round; stroke-miterlimit: 10; fill: none; fill-rule: nonzero; opacity: 1;" vector-effect="non-scaling-stroke"  transform=" translate(-83.83, -92.54)" d="M 100.83018739635165 53.15191210613599 Q 100.82918739635164 53.15091210613599 100.00000000000006 51.90713101160863 Q 99.17081260364847 50.66334991708126 98.75621890547268 50.24875621890547 Q 98.34162520729689 49.83416252072968 98.34162520729689 49.4195688225539 Q 98.34162520729689 49.00497512437812 97.9270315091211 48.59038142620233 Q 97.5124378109453 48.175787728026535 95.85406301824216 48.175787728026535 Q 94.19568822553902 48.175787728026535 91.70812603648429 48.175787728026535 Q 89.22056384742956 48.175787728026535 84.6600331674959 48.59038142620233 Q 80.09950248756223 49.00497512437812 75.12437810945278 50.248756218905484 Q 70.14925373134332 51.49253731343285 62.271973466003345 52.7363184079602 Q 54.39469320066337 53.98009950248755 51.49253731343288 55.22388059701491 Q 48.590381426202384 56.467661691542276 46.102819237147656 57.29684908789386 Q 43.61525704809293 58.126036484245446 42.78606965174134 58.95522388059702 Q 41.95688225538976 59.78441127694859 41.12769485903817 60.19900497512438 Q 40.29850746268659 60.613598673300174 39.88391376451082 61.02819237147595 Q 39.46932006633506 61.44278606965173 39.054726368159265 62.27197346600332 Q 38.64013266998347 63.1011608623549 38.22553897180768 63.93034825870647 Q 37.81094527363189 64.75953565505804 36.9817578772803 66.00331674958541 Q 36.152570480928716 67.24709784411277 35.32338308457716 69.32006633499171 Q 34.4941956882256 71.39303482587064 34.4941956882256 72.636815920398 Q 34.4941956882256 73.88059701492537 34.07960199004981 74.70978441127694 Q 33.66500829187402 75.53897180762851 32.83582089552243 77.61194029850746 Q 32.006633499170846 79.68490878938641 32.006633499170846 80.92868988391378 Q 32.006633499170846 82.17247097844114 31.17744610281929 84.24543946932008 Q 30.348258706467732 86.31840796019901 30.348258706467732 87.97678275290217 Q 30.348258706467732 89.63515754560532 30.348258706467732 91.29353233830847 Q 30.348258706467732 92.95190713101161 30.348258706467732 94.61028192371475 Q 30.348258706467732 96.2686567164179 30.348258706467732 97.92703150912106 Q 30.348258706467732 99.58540630182424 30.762852404643496 102.48756218905473 Q 31.17744610281926 105.38971807628522 32.006633499170846 107.46268656716416 Q 32.83582089552243 109.53565505804309 33.66500829187402 110.77943615257047 Q 34.4941956882256 112.02321724709785 35.32338308457716 114.09618573797678 Q 36.152570480928716 116.16915422885572 36.9817578772803 117.82752902155886 Q 37.81094527363189 119.485903814262 39.05472636815924 121.55887230514094 Q 40.29850746268659 123.63184079601987 41.542288557213965 125.29021558872304 Q 42.78606965174134 126.94859038142621 44.444444444444485 129.02155887230515 Q 46.10281923714763 131.09452736318408 48.17578772802656 132.33830845771143 Q 50.2487562189055 133.58208955223878 52.321724709784434 134.82587064676616 Q 54.39469320066337 136.06965174129354 56.05306799336654 136.8988391376451 Q 57.71144278606971 137.72802653399665 59.784411276948646 138.55721393034824 Q 61.85737976782758 139.38640132669983 64.34494195688231 140.2155887230514 Q 66.83250414593704 141.044776119403 69.32006633499176 141.044776119403 Q 71.80762852404649 141.044776119403 74.70978441127701 141.044776119403 Q 77.61194029850753 141.044776119403 80.51409618573803 141.044776119403 Q 83.41625207296852 141.044776119403 86.73300165837483 140.2155887230514 Q 90.04975124378115 139.38640132669983 93.36650082918743 138.55721393034824 Q 96.68325041459372 137.72802653399665 101.65837479270317 136.4842454394693 Q 106.63349917081263 135.24046434494196 110.36484245439473 133.5820895522388 Q 114.09618573797684 131.92371475953567 118.24212271973471 130.6799336650083 Q 122.38805970149258 129.4361525704809 124.46102819237151 127.36318407960198 Q 126.53399668325045 125.29021558872304 128.1923714759536 123.21724709784411 Q 129.85074626865674 121.14427860696517 130.67993366500832 119.48590381426203 Q 131.5091210613599 117.82752902155889 132.3383084577115 115.75456053067995 Q 133.16749585406308 113.68159203980102 133.58208955223887 111.60862354892205 Q 133.99668325041466 109.53565505804309 135.240464344942 106.2189054726368 Q 136.48424543946936 102.90215588723052 136.89883913764515 100.82918739635159 Q 137.31343283582095 98.75621890547265 137.31343283582095 96.26865671641792 Q 137.31343283582095 93.7810945273632 137.31343283582095 91.29353233830847 Q 137.31343283582095 88.80597014925374 137.31343283582095 87.14759535655058 Q 137.31343283582095 85.48922056384743 136.89883913764515 83.83084577114428 Q 136.48424543946936 82.17247097844114 135.65505804311778 80.09950248756219 Q 134.8258706467662 78.02653399668324 134.41127694859043 76.3681592039801 Q 133.99668325041466 74.70978441127696 133.58208955223887 73.0514096185738 Q 133.16749585406308 71.39303482587064 131.5091210613599 68.90547263681592 Q 129.85074626865674 66.41791044776119 129.02155887230518 64.75953565505804 Q 128.19237147595362 63.1011608623549 127.36318407960204 61.442786069651746 Q 126.53399668325045 59.78441127694859 125.2902155887231 58.540630182421225 Q 124.04643449419575 57.29684908789386 123.21724709784417 56.0530679933665 Q 122.38805970149258 54.80928689883913 121.97346600331679 54.39469320066334 Q 121.558872305141 53.98009950248755 121.1442786069652 53.56550580431177 Q 120.72968490878941 53.15091210613599 120.31509121061364 52.7363184079602 Q 119.90049751243788 52.321724709784405 119.48590381426209 52.321724709784405 Q 119.0713101160863 52.321724709784405 118.6567164179105 51.90713101160863 Q 118.24212271973471 51.49253731343285 117.82752902155892 51.077943615257055 Q 117.41293532338312 50.66334991708126 116.99834162520733 50.24875621890547 Q 116.58374792703154 49.83416252072968 116.16915422885575 49.4195688225539 Q 115.75456053067995 49.00497512437812 114.9253731343284 48.59038142620233 Q 114.09618573797684 48.175787728026535 113.26699834162525 47.76119402985074 Q 112.43781094527367 47.34660033167495 111.60862354892208 46.93200663349917 Q 110.7794361525705 46.51741293532339 110.36484245439473 46.51741293532339 Q 109.95024875621897 46.51741293532339 109.12106135986738 46.1028192371476 Q 108.2918739635158 45.68822553897181 107.87728026534 45.68822553897181 Q 107.46268656716421 45.68822553897181 106.63349917081266 45.273631840796014 Q 105.8043117744611 44.85903814262022 104.56053067993372 44.44444444444444 Q 103.31674958540634 44.029850746268664 102.07296849087899 44.029850746268664 Q 100.82918739635164 44.029850746268664 100.41459369817585 44.029850746268664 Q 100.00000000000006 44.029850746268664 99.58540630182426 44.029850746268664 Q 99.17081260364847 44.029850746268664 98.75621890547268 44.029850746268664 Q 98.34162520729689 44.029850746268664 97.9270315091211 44.029850746268664 Q 97.5124378109453 44.029850746268664 97.09784411276951 44.029850746268664 Q 96.68325041459372 44.029850746268664 95.85406301824216 44.029850746268664 Q 95.0248756218906 44.029850746268664 93.36650082918746 44.44444444444444 Q 91.70812603648432 44.85903814262022 89.63515754560535 45.68822553897181 Q 87.56218905472639 46.51741293532339 87.14759535655062 46.93200663349917 Q 86.73300165837486 47.34660033167495 86.31840796019907 47.76119402985074 Q 85.90381426202327 48.175787728026535 85.07462686567169 49.004975124378106 L 84.2444394693201 49.835162520729675" stroke-linecap="round" />
</g>
<g transform="matrix(1 0 0 1 86.74 100)" id="wQ7b9UM1LOnEtaAB45ObW"  >
<path style="stroke: rgb(255,255,255); stroke-width: 15; stroke-dasharray: none; stroke-linecap: round; stroke-dashoffset: 0; stroke-linejoin: round; stroke-miterlimit: 10; fill: none; fill-rule: nonzero; opacity: 1;" vector-effect="non-scaling-stroke"  transform=" translate(-76.78, -101.24)" d="M 76.76775290215595 101.24378109452735 L 76.79775290215595 101.24378109452735" stroke-linecap="round" />
</g>
<g transform="matrix(1 0 0 1 120.74 92.54)" id="JpobJRudNtnwVZtNeBKXW"  >
<path style="stroke: rgb(255,255,255); stroke-width: 15; stroke-dasharray: none; stroke-linecap: round; stroke-dashoffset: 0; stroke-linejoin: round; stroke-miterlimit: 10; fill: none; fill-rule: nonzero; opacity: 1;" vector-effect="non-scaling-stroke"  transform=" translate(-110.78, -93.78)" d="M 110.7644361525705 93.7810945273632 L 110.7944361525705 93.7810945273632" stroke-linecap="round" />
</g>
<g transform="matrix(0.39 0 0 0.39 109.04 120.48)" id="0XRqs8quXSP5GZ4eBkLyd"  >
<path style="stroke: rgb(255,255,255); stroke-width: 15; stroke-dasharray: none; stroke-linecap: round; stroke-dashoffset: 0; stroke-linejoin: round; stroke-miterlimit: 10; fill: none; fill-rule: nonzero; opacity: 1;" vector-effect="non-scaling-stroke"  transform=" translate(-113.27, -121.14)" d="M 83.40125207296852 127.7927777777778 Q 83.41625207296852 127.7777777777778 91.2935323383085 126.94859038142621 Q 99.17081260364847 126.11940298507463 121.14427860696523 120.31509121061359 L 143.13274461028197 114.49577943615255" stroke-linecap="round" />
</g>
<g transform="matrix(1 0 0 1 68.5 74.3)" id="1Yh8RpnQ7yBM72HabLwdy"  >
<path style="stroke: rgb(255,255,255); stroke-width: 15; stroke-dasharray: none; stroke-linecap: round; stroke-dashoffset: 0; stroke-linejoin: round; stroke-miterlimit: 10; fill: none; fill-rule: nonzero; opacity: 1;" vector-effect="non-scaling-stroke"  transform=" translate(-58.54, -75.54)" d="M 85.08962686567169 63.0861608623549 Q 85.07462686567169 63.1011608623549 83.83084577114431 63.1011608623549 Q 82.58706467661693 63.1011608623549 78.44112769485906 63.93034825870647 Q 74.29519071310119 64.75953565505804 71.80762852404646 64.75953565505804 Q 69.32006633499174 64.75953565505804 67.6616915422886 65.17412935323384 Q 66.00331674958545 65.58872305140963 64.34494195688231 65.58872305140963 Q 62.686567164179166 65.58872305140963 60.61359867330023 66.4179104477612 Q 58.540630182421296 67.24709784411277 58.1260364842455 67.66169154228857 Q 57.71144278606971 68.07628524046436 56.882255389718125 68.49087893864014 Q 56.05306799336654 68.90547263681592 55.63847429519075 69.32006633499171 Q 55.223880597014954 69.7346600331675 54.80928689883916 70.14925373134328 Q 54.39469320066337 70.56384742951906 53.56550580431181 71.39303482587064 Q 52.736318407960255 72.22222222222223 50.66334991708132 72.636815920398 Q 48.590381426202384 73.05140961857379 46.93200663349921 73.88059701492537 Q 45.27363184079604 74.70978441127696 43.20066334991711 75.53897180762853 Q 41.12769485903817 76.3681592039801 40.71310116086238 76.78275290215589 Q 40.29850746268659 77.19734660033168 39.88391376451082 77.19734660033168 Q 39.46932006633506 77.19734660033168 39.46932006633506 77.61194029850746 Q 39.46932006633506 78.02653399668324 39.46932006633506 78.44112769485903 Q 39.46932006633506 78.85572139303483 39.054726368159265 78.85572139303483 Q 38.64013266998347 78.85572139303483 37.81094527363189 80.09950248756219 Q 36.9817578772803 81.34328358208955 36.9817578772803 82.17247097844113 Q 36.9817578772803 83.0016583747927 36.56716417910451 83.0016583747927 Q 36.152570480928716 83.0016583747927 35.737976782752924 83.83084577114427 Q 35.32338308457713 84.66003316749584 34.90878938640137 85.07462686567163 Q 34.4941956882256 85.48922056384743 34.07960199004981 85.90381426202322 Q 33.66500829187402 86.31840796019901 32.83582089552243 87.14759535655058 L 31.991633499170845 87.99178275290215" stroke-linecap="round" />
</g>
<g transform="matrix(1 0 0 1 119.91 61.87)" id="X0RJ_P0IbVkYZmwtDcJlM"  >
<path style="stroke: rgb(255,255,255); stroke-width: 15; stroke-dasharray: none; stroke-linecap: round; stroke-dashoffset: 0; stroke-linejoin: round; stroke-miterlimit: 10; fill: none; fill-rule: nonzero; opacity: 1;" vector-effect="non-scaling-stroke"  transform=" translate(-109.95, -63.11)" d="M 75.93856550580436 68.09128524046436 Q 75.95356550580436 68.07628524046436 76.78275290215595 67.24709784411277 Q 77.61194029850753 66.41791044776119 80.09950248756223 66.00331674958541 Q 82.58706467661693 65.58872305140963 87.14759535655062 63.93034825870647 Q 91.70812603648432 62.27197346600332 95.4394693200664 60.61359867330016 Q 99.17081260364847 58.955223880597 101.6583747927032 58.540630182421225 Q 104.14593698175793 58.126036484245446 105.80431177446107 57.29684908789386 Q 107.46268656716421 56.467661691542276 108.70646766169159 56.467661691542276 Q 109.95024875621897 56.467661691542276 110.36484245439473 56.467661691542276 Q 110.7794361525705 56.467661691542276 111.60862354892208 56.467661691542276 Q 112.43781094527367 56.467661691542276 112.85240464344946 56.467661691542276 Q 113.26699834162525 56.467661691542276 113.68159203980105 56.467661691542276 Q 114.09618573797684 56.467661691542276 114.51077943615263 56.467661691542276 Q 114.92537313432842 56.467661691542276 115.33996683250419 56.88225538971807 Q 115.75456053067995 57.29684908789386 116.58374792703154 58.12603648424543 Q 117.41293532338312 58.955223880597 118.24212271973471 59.369817578772796 Q 119.0713101160863 59.78441127694859 119.90049751243785 60.19900497512438 Q 120.72968490878941 60.613598673300174 121.558872305141 61.02819237147595 Q 122.38805970149258 61.44278606965173 123.63184079601996 61.857379767827524 Q 124.87562189054734 62.27197346600332 125.7048092868989 63.10116086235489 Q 126.53399668325045 63.93034825870646 127.77777777777783 63.93034825870646 Q 129.0215588723052 63.93034825870646 130.26533996683256 63.93034825870646 Q 131.5091210613599 63.93034825870646 131.9237147595357 63.93034825870646 Q 132.3383084577115 63.93034825870646 133.16749585406308 63.93034825870646 Q 133.99668325041466 63.93034825870646 134.41127694859043 63.93034825870646 Q 134.8258706467662 63.93034825870646 135.24046434494198 63.93034825870646 Q 135.65505804311778 63.93034825870646 136.48424543946936 63.93034825870646 Q 137.31343283582095 63.93034825870646 137.72802653399674 63.93034825870646 Q 138.14262023217253 63.93034825870646 138.55721393034833 63.93034825870646 Q 138.97180762852412 63.93034825870646 138.97180762852412 64.34494195688225 Q 138.97180762852412 64.75953565505804 139.80099502487568 65.17412935323384 Q 140.63018242122723 65.58872305140963 141.04477611940302 66.00331674958541 Q 141.45936981757882 66.41791044776119 141.8739635157546 66.83250414593698 Q 142.2885572139304 67.24709784411277 142.7031509121062 67.66169154228857 Q 143.117744610282 68.07628524046436 143.53233830845775 68.90547263681593 L 143.9619320066335 69.7496600331675" stroke-linecap="round" />
</g>
<g transform="matrix(1 0 0 1 119.5 53.57)" id="6CgyL6b58aZSapEPFBcEN"  >
<path style="stroke: rgb(255,255,255); stroke-width: 15; stroke-dasharray: none; stroke-linecap: round; stroke-dashoffset: 0; stroke-linejoin: round; stroke-miterlimit: 10; fill: none; fill-rule: nonzero; opacity: 1;" vector-effect="non-scaling-stroke"  transform=" translate(-109.54, -54.81)" d="M 85.88881426202327 67.26209784411277 Q 85.90381426202327 67.24709784411277 85.90381426202327 66.4179104477612 Q 85.90381426202327 65.58872305140963 87.97678275290221 63.93034825870647 Q 90.04975124378115 62.27197346600332 92.53731343283587 60.19900497512438 Q 95.0248756218906 58.126036484245446 99.58540630182426 56.0530679933665 Q 104.14593698175793 53.98009950248755 105.38971807628528 53.150912106135976 Q 106.63349917081263 52.321724709784405 109.95024875621894 51.492537313432834 Q 113.26699834162525 50.66334991708126 114.9253731343284 50.24875621890547 Q 116.58374792703154 49.83416252072968 116.99834162520733 49.004975124378106 Q 117.41293532338312 48.175787728026535 121.14427860696523 46.51741293532338 Q 124.87562189054734 44.85903814262022 129.0215588723052 43.61525704809286 L 133.18249585406306 42.35647595356549" stroke-linecap="round" />
</g>
</svg>