<?xml version="1.0" encoding="UTF-8" standalone="no"?>
<!-- Created with Inkscape (http://www.inkscape.org/) -->

<svg
   width="200"
   height="200"
   viewBox="0 0 52.916665 52.916666"
   version="1.1"
   id="svg1"
   inkscape:version="1.3.2 (091e20e, 2023-11-25)"
   sodipodi:docname="zibutton.svg"
   xmlns:inkscape="http://www.inkscape.org/namespaces/inkscape"
   xmlns:sodipodi="http://sodipodi.sourceforge.net/DTD/sodipodi-0.dtd"
   xmlns="http://www.w3.org/2000/svg"
   xmlns:svg="http://www.w3.org/2000/svg">
  <sodipodi:namedview
     id="namedview1"
     pagecolor="#505050"
     bordercolor="#eeeeee"
     borderopacity="1"
     inkscape:showpageshadow="0"
     inkscape:pageopacity="0"
     inkscape:pagecheckerboard="0"
     inkscape:deskcolor="#d1d1d1"
     inkscape:document-units="mm"
     inkscape:zoom="3.1037318"
     inkscape:cx="54.933871"
     inkscape:cy="109.38445"
     inkscape:window-width="1850"
     inkscape:window-height="1016"
     inkscape:window-x="70"
     inkscape:window-y="27"
     inkscape:window-maximized="1"
     inkscape:current-layer="layer1" />
  <defs
     id="defs1" />
  <g
     inkscape:label="Layer 1"
     inkscape:groupmode="layer"
     id="layer1">
    <circle
       style="fill:#ee6a6a;stroke-width:0.345339;stroke-linecap:square;stroke-miterlimit:0;paint-order:markers fill stroke;fill-opacity:1"
       id="path1"
       cx="26.458334"
       cy="26.458334"
       r="26.458334" />
    <path
       id="z23383d1"
       d="m 25.001902,9.1374504 c 0.878919,0.571298 1.757839,1.3623246 2.724652,2.1533516 0.439459,0.351569 0.966812,0.527352 1.53811,0.483407 0.351568,-0.04395 0.571298,-0.307621 0.703135,-0.747082 0.08789,-0.527352 0,-1.3183786 -0.395513,-2.2412456 -0.439461,-1.0107577 -2.109408,-1.7138937 -5.009843,-2.0215146 -0.571299,-0.087893 -0.966812,-0.087893 -1.098651,0.043941 -0.21973,0.1318378 -0.263676,0.4394595 -0.131837,0.8789207 0.131837,0.3955127 0.747081,0.7910271 1.669947,1.4502169 z"
       style="fill:#ffffff;fill-opacity:1;stroke-width:0.043946" />
    <path
       id="z23383d2"
       d="m 16.652163,15.421725 c 0,-0.615244 -0.351568,-1.230488 -1.010758,-1.75784 -0.571297,-0.483405 -0.922866,-0.351568 -0.922866,0.439461 -0.04395,0.615243 -0.395514,2.153354 -1.713894,3.691464 -1.274434,1.450218 -1.713894,2.7686 -1.274434,4.174871 0.04395,0.219725 0.131838,0.43946 0.263676,0.703135 0.395515,0.747085 0.87892,0.791027 1.53811,0 0.439459,-0.615243 1.31838,-2.548868 2.724652,-5.800872 0.175784,-0.483406 0.395514,-0.966812 0.395514,-1.450219 z"
       style="fill:#ffffff;fill-opacity:1;stroke-width:0.043946" />
    <path
       id="z23383d3"
       d="m 16.256649,16.871944 c 0.615244,0.351568 1.450218,0.483406 2.548867,0.175784 4.3946,-1.274434 9.931796,-2.241247 16.655534,-2.724652 0.703135,-0.0879 1.274433,-0.175784 1.582055,0 0.571298,0.307621 0.703136,0.65919 0.65919,0.878919 -0.04395,0.0879 -0.439461,1.274435 -1.362327,3.427789 -0.175783,0.395513 -0.219728,0.615244 0,0.791028 0.175786,0.08789 0.527353,0 1.054705,-0.351568 1.582055,-1.186542 3.07622,-1.97757 4.438545,-2.373083 1.054705,-0.395515 1.626002,-0.703138 1.626002,-0.966814 -0.04394,-0.307622 -1.142594,-1.230488 -3.295949,-2.768597 -0.747082,-0.527351 -2.241247,-0.43946 -4.61433,-0.08789 -5.976655,0.834973 -10.898607,1.362325 -14.677962,2.021516 -1.450218,0.219729 -2.85649,0.351567 -4.218816,0.527351 -0.483406,0.08789 -0.834974,1.230489 -0.395514,1.450219 z"
       style="fill:#ffffff;fill-opacity:1;stroke-width:0.043946" />
    <path
       id="z23383d4"
       d="m 27.243148,26.759794 c 3.603571,-2.812541 5.844818,-4.306712 6.635845,-4.526438 0.571297,-0.175783 0.703137,-0.571302 0.615244,-1.010761 -0.131838,-0.483401 -1.09865,-1.274431 -3.032274,-2.373081 -0.571298,-0.307622 -1.186541,-0.351568 -1.845731,-0.08789 -1.801786,0.615244 -4.043032,1.31838 -6.767684,2.109406 -0.747082,0.175783 -1.977569,0.263675 -3.647517,0.219734 -0.703136,-0.04392 -0.966813,0.219725 -0.703136,0.834968 0.175783,0.395518 0.571297,0.747086 1.186541,1.098653 0.87892,0.48341 1.801786,0.307626 2.85649,-0.131833 0.615244,-0.307626 2.592815,-0.922869 5.932709,-2.109415 0.351569,-0.131833 0.747082,-0.131833 1.098651,0.08789 0.351567,0.175783 0.527351,0.527351 0.307622,0.922869 -0.922866,1.362329 -2.021516,2.81254 -3.07622,4.482487 -0.131839,0.175783 0.263676,0.615243 0.43946,0.483411 z"
       style="fill:#ffffff;fill-opacity:1;stroke-width:0.043946" />
    <path
       id="z23383d5"
       d="m 28.64942,29.616285 c -0.351568,-1.186546 -0.966812,-2.37309 -1.406272,-2.856491 -0.307621,-0.307627 -0.307621,-0.307627 -0.43946,-0.48341 -0.307622,-0.351568 -0.615244,-0.483401 -0.922867,-0.659185 -0.351567,-0.175784 -0.527351,-0.219734 -0.703135,0.04392 -0.131838,0.08789 -0.08789,0.351568 0.131838,0.791027 0.43946,0.96682 0.65919,1.713897 1.142596,3.383843 0.131838,0.527351 0.219729,1.098653 0.307621,1.713896 0.571298,4.834064 0.219731,7.119253 -0.395513,9.27261 -0.131838,0.395508 -0.351567,0.615242 -0.483407,0.703134 -0.439459,0.219726 -1.889677,-0.307626 -4.834059,-1.186545 -0.307621,-0.08789 -0.527352,-0.04392 -0.747081,0.04392 -0.175784,0.04392 -0.04394,0.219725 0.43946,0.615243 1.933624,1.582054 3.427787,3.164108 4.614329,4.570379 0.483405,0.571301 1.054704,0.703135 1.582057,0.439459 0.703135,-0.395509 1.362325,-1.36232 1.84573,-2.944383 0.791029,-2.724649 1.142596,-6.547951 0.263676,-11.689632 -0.131837,-0.615243 -0.263676,-1.186544 -0.395513,-1.757838 z"
       style="fill:#ffffff;fill-opacity:1;stroke-width:0.043946" />
    <path
       id="z23383d6"
       d="m 29.044933,31.374122 c 4.702223,-0.395517 9.492336,-0.615243 14.502179,-0.131841 0.615243,0.04392 1.09865,0 1.274433,-0.219725 0.219731,-0.395519 0.131839,-0.747087 -0.175783,-1.054704 -0.834973,-0.834977 -1.845732,-1.494162 -3.07622,-2.021513 -0.395513,-0.175784 -0.922865,-0.08789 -1.669947,0.08789 -2.021515,0.439459 -4.086978,0.747076 -6.108494,1.010753 -1.97757,0.219734 -3.73541,0.395517 -5.141681,0.571301 -1.450218,0.131833 -1.450218,0.131833 -2.1973,0.219725 -1.362325,0.131842 -3.076219,0.351568 -8.437631,0.834978 -1.97757,0.131834 -4.438546,0.483401 -7.426872,0.483401 -0.395515,0 -0.6152446,0.08789 -0.6591905,0.439469 -0.043951,0.351566 0.1757835,0.703134 0.7470825,1.142594 0.439458,0.351568 1.142595,0.703135 2.021515,1.054702 0.263675,0.08789 0.659189,0 1.186541,-0.175783 0.43946,-0.175784 1.75784,-0.307626 3.911193,-0.747085 2.636761,-0.571294 5.625088,-1.054704 8.964983,-1.318379 1.538111,-0.131834 1.538111,-0.131834 2.285192,-0.175783 z"
       style="fill:#ffffff;fill-opacity:1;stroke-width:0.043946" />
  </g>
</svg>
